# xmcd CD database file
#
# Track frame offsets:
#	150
#	13291
#	31472
#	45161
#	56571
#	69110
#	80971
#	92824
#	106407
#	119960
#	132123
#	142202
#	157081
#	168157
#	184813
#	197117
#	215716
#	228751
#	239952
#	257626
#	269038
#	281618
#
# Disc length: 4107 seconds
#
# Revision: 0
# Processed by: cddbd v1.5.1PL2 Copyright (c) Steve Scherf et al.
# Submitted via: CDex 1.51
#
DISCID=58100916
DTITLE=Benny Goodman - Class of '39
DYEAR=2003
DGENRE=Jazz
TTITLE0=Softly As In A Morning Sunrise
TTITLE1=Umbrella Man
TTITLE2=I've Found A New Baby
TTITLE3=The World Is Waiting For The Sunrise
TTITLE4=I Cried For You
TTITLE5=Pagan Love Song
TTITLE6=Deep Purple
TTITLE7=Opus 3/4
TTITLE8=The Man I Love
TTITLE9=Chicago
TTITLE10=Oh, Lady Be Good
TTITLE11=Old Fashion Love
TTITLE12=The Sheik Of Araby
TTITLE13=I Got Rythm
TTITLE14=Tea For Two
TTITLE15=Stompin' At The Savoy
TTITLE16=Wishing
TTITLE17=China Boy
TTITLE18=Flying Home
TTITLE19=Star Dust
TTITLE20=AC-DC Current
TTITLE21=South Of The Border
EXTD=YEAR: 2003
EXTT0=
EXTT1=
EXTT2=
EXTT3=
EXTT4=
EXTT5=
EXTT6=
EXTT7=
EXTT8=
EXTT9=
EXTT10=
EXTT11=
EXTT12=
EXTT13=
EXTT14=
EXTT15=
EXTT16=
EXTT17=
EXTT18=
EXTT19=
EXTT20=
EXTT21=
PLAYORDER=
